<svg height="44" width="159" xmlns="http://www.w3.org/2000/svg" 
    xmlns:xlink="http://www.w3.org/1999/xlink" 
    id="Слой_1" x="0px" y="0px" 
    viewBox="0 0 1608.5 684.1" 
    style="enable-background:new 0 0 1608.5 684.1;" 
    xml:space="preserve">
    <style type="text/css"> .st0{stroke:#000000;stroke-width:0.216;stroke-miterlimit:22.9256;} .st1{stroke:#000000;stroke-width:3.9685;stroke-miterlimit:22.9256;} </style> 
    <g> 
        <path class="st0" d="M682.7,305.1h-14.3v-43.5c-12.8,4.7-24,7.1-33.6,7.1c-7.5,0-14.1-1.8-19.9-5.3c-5.7-3.5-9.6-8-11.5-13.3 c-2-5.4-2.9-12.5-2.9-21.2v-31.7h14.3v30.4c0,11.8,2.2,19.5,6.5,23.2c4.3,3.7,9.4,5.6,15.5,5.6c10.1,0,20.7-2.2,31.7-6.7v-52.5 h14.3V305.1L682.7,305.1z M714.8,305.1V197.2h78v12.7h-63.8v33h59.7v12.7h-59.7v36.7h66.3v12.7H714.8L714.8,305.1z M823,305.1 V197.2h21.5l25.5,76.4c2.4,7.1,4.1,12.4,5.2,16c1.2-3.9,3.1-9.7,5.8-17.3l25.8-75.1H926v107.9h-13.8v-90.3l-31.4,90.3H868 l-31.2-91.9v91.9H823L823,305.1z M957.6,197.2h84.9v107.9h-14.4v-95.2h-56.2v95.2h-14.3V197.2L957.6,197.2z M1074.5,197.2h12.9 v85.5l57.4-85.5h14.4v107.9h-13v-85.3l-57.5,85.3h-14.3V197.2L1074.5,197.2z M1186.6,252.5c0-17.9,4.8-31.9,14.4-42.1 c9.6-10.1,22-15.2,37.3-15.2c10,0,18.9,2.4,26.9,7.1c8,4.8,14.1,11.4,18.3,19.9c4.2,8.5,6.3,18.2,6.3,28.9c0,11-2.2,20.8-6.6,29.4 c-4.4,8.6-10.7,15.2-18.8,19.6c-8.1,4.4-16.8,6.7-26.2,6.7c-10.2,0-19.2-2.4-27.2-7.4c-8-4.9-14.1-11.6-18.2-20.1 C1188.7,271,1186.6,262,1186.6,252.5L1186.6,252.5z M1201.4,252.8c0,13,3.5,23.2,10.5,30.7c7,7.5,15.8,11.2,26.3,11.2 c10.8,0,19.6-3.8,26.5-11.3s10.4-18.3,10.4-32.2c0-8.8-1.5-16.4-4.5-23c-3-6.6-7.3-11.6-13-15.3c-5.7-3.6-12.1-5.4-19.2-5.4 c-10.1,0-18.8,3.5-26.1,10.4C1205,224.9,1201.4,236.5,1201.4,252.8L1201.4,252.8z M1317.1,305.1V197.2h14.3v44.3h56.1v-44.3h14.3 v107.9h-14.3v-50.9h-56.1v50.9H1317.1L1317.1,305.1z M1422.1,305.1l41.5-107.9h15.4l44.2,107.9h-16.3l-12.6-32.7h-45.1l-11.8,32.7 H1422.1L1422.1,305.1z M1453.2,260.8h36.6l-11.3-29.9c-3.4-9.1-6-16.5-7.6-22.4c-1.4,6.9-3.3,13.8-5.8,20.6L1453.2,260.8 L1453.2,260.8z M1558.5,305.1v-95.2H1523v-12.7h85.5v12.7h-35.7v95.2H1558.5L1558.5,305.1z M606.1,493.7V385.7h14.3v44.3h56.1 v-44.3h14.3v107.9h-14.3v-50.9h-56.1v50.9H606.1L606.1,493.7z M723.2,493.7V385.7h78v12.7h-63.8v33h59.7v12.7h-59.7v36.7h66.3v12.7 H723.2L723.2,493.7z M870.9,398.7v-13.8h13.4v13.8c13.7,0.7,24.6,4.9,32.5,12.4c7.9,7.5,11.9,16.9,11.9,28.1 c0,11-3.8,20.3-11.6,27.9c-7.7,7.7-18.7,11.9-32.9,12.7v13.9h-13.4v-13.9c-12.8-0.5-23.4-4.4-31.9-11.7 c-8.5-7.3-12.7-16.9-12.7-28.9c0-12,4.2-21.6,12.7-28.8C847.5,403.1,858.1,399.2,870.9,398.7L870.9,398.7z M884.3,410.9v56.5 c9.2-0.5,16.5-3.1,21.8-8c5.3-4.9,7.9-11.7,7.9-20.3c0-8.4-2.6-15.1-7.8-20.1C901,414.2,893.7,411.5,884.3,410.9L884.3,410.9z M870.9,411c-8.9,0.4-16.1,3-21.6,7.9c-5.5,4.9-8.2,11.6-8.2,20.3c0,8.6,2.7,15.3,8.1,20.3c5.4,4.9,12.6,7.5,21.7,7.9V411 L870.9,411z M973.9,493.7v-95.2h-35.6v-12.7h85.5v12.7h-35.7v95.2H973.9L973.9,493.7z M1129,493.7V385.7h-47.8 c-9.6,0-16.9,1-21.9,2.9c-5,1.9-9,5.4-12,10.3c-3,4.9-4.5,10.4-4.5,16.3c0,7.7,2.5,14.1,7.4,19.3c5,5.3,12.6,8.6,23,10 c-3.8,1.8-6.7,3.6-8.6,5.4c-4.2,3.8-8.1,8.6-11.9,14.3l-18.8,29.4h18l14.3-22.5c4.2-6.5,7.6-11.4,10.3-14.9 c2.7-3.4,5.1-5.9,7.2-7.2c2.1-1.4,4.3-2.3,6.5-2.9c1.6-0.3,4.3-0.5,8-0.5h16.6v47.9H1129L1129,493.7z M1114.7,433.4H1084 c-6.5,0-11.6-0.7-15.3-2c-3.7-1.4-6.5-3.5-8.4-6.5c-1.9-3-2.9-6.2-2.9-9.7c0-5.1,1.8-9.3,5.6-12.6c3.7-3.3,9.5-4.9,17.6-4.9h34.2 V433.4L1114.7,433.4z M1161.3,493.7V385.7h14.3v44.3h56.1v-44.3h14.3v107.9h-14.3v-50.9h-56.1v50.9H1161.3L1161.3,493.7z M1273.8,441.1c0-17.9,4.8-31.9,14.4-42.1c9.6-10.1,22-15.2,37.3-15.2c10,0,18.9,2.4,26.9,7.1c8,4.8,14.1,11.4,18.3,19.9 c4.2,8.5,6.3,18.2,6.3,29c0,11-2.2,20.8-6.6,29.4c-4.4,8.6-10.7,15.2-18.8,19.6c-8.1,4.4-16.8,6.7-26.2,6.7 c-10.2,0-19.2-2.4-27.2-7.4c-8-4.9-14.1-11.6-18.2-20.1C1275.8,459.6,1273.8,450.6,1273.8,441.1L1273.8,441.1z M1288.5,441.3 c0,13,3.5,23.2,10.5,30.7c7,7.5,15.8,11.2,26.3,11.2c10.8,0,19.6-3.8,26.5-11.3c6.9-7.6,10.4-18.3,10.4-32.2c0-8.8-1.5-16.4-4.5-23 c-3-6.6-7.3-11.6-13-15.3c-5.7-3.6-12.1-5.4-19.2-5.4c-10.1,0-18.8,3.5-26.1,10.4C1292.2,413.5,1288.5,425.1,1288.5,441.3 L1288.5,441.3z M1404,385.7h12.9v85.5l57.4-85.5h14.4v107.9h-13v-85.3l-57.5,85.3H1404V385.7L1404,385.7z M1457.7,360.1h9 c-0.7,6.1-3,10.9-6.7,14.1c-3.7,3.3-8.7,5-15,5c-6.3,0-11.3-1.6-15.1-4.9c-3.8-3.3-6-8-6.7-14.2h9c0.7,3.3,2.1,5.8,4.1,7.5 c2,1.7,4.8,2.5,8.2,2.5c4,0,7-0.8,9-2.4C1455.6,366,1457,363.5,1457.7,360.1L1457.7,360.1z M601.3,629.6c0-17.9,4.8-31.9,14.4-42.1 c9.6-10.1,22-15.2,37.3-15.2c10,0,18.9,2.4,26.9,7.1c8,4.8,14.1,11.4,18.3,19.9c4.2,8.5,6.3,18.2,6.3,28.9c0,11-2.2,20.8-6.6,29.4 c-4.4,8.6-10.7,15.2-18.8,19.6c-8.1,4.4-16.8,6.7-26.2,6.7c-10.2,0-19.2-2.4-27.2-7.4c-8-4.9-14.1-11.6-18.2-20.1 C603.4,648.1,601.3,639.1,601.3,629.6L601.3,629.6z M616,629.9c0,13,3.5,23.2,10.5,30.7c7,7.5,15.8,11.2,26.3,11.2 c10.8,0,19.6-3.8,26.5-11.3c6.9-7.6,10.4-18.3,10.4-32.2c0-8.8-1.5-16.4-4.5-23c-3-6.6-7.3-11.6-13-15.3 c-5.7-3.6-12.1-5.4-19.2-5.4c-10.1,0-18.8,3.5-26.1,10.4C619.7,602,616,613.6,616,629.9L616,629.9z M758.8,682.2V587h-35.6v-12.7 h85.5V587h-35.7v95.2H758.8L758.8,682.2z M831.8,682.2V574.3h40.7c7.2,0,12.6,0.4,16.4,1c5.3,0.9,9.8,2.6,13.3,5.1 c3.6,2.5,6.5,6,8.6,10.4c2.2,4.5,3.3,9.4,3.3,14.7c0,9.2-2.9,17-8.7,23.3c-5.9,6.3-16.4,9.5-31.7,9.5h-27.7v43.9H831.8L831.8,682.2 z M846.1,625.6H874c9.2,0,15.8-1.7,19.7-5.2c3.9-3.4,5.8-8.3,5.8-14.5c0-4.5-1.1-8.4-3.4-11.6c-2.3-3.2-5.3-5.3-9-6.4 c-2.4-0.6-6.8-1-13.3-1h-27.6V625.6L846.1,625.6z M918.8,682.2l41.5-107.9h15.4l44.2,107.9h-16.3L991,649.5h-45.1L934,682.2H918.8 L918.8,682.2z M950,637.9h36.6L975.3,608c-3.4-9.1-6-16.5-7.6-22.4c-1.4,6.9-3.3,13.8-5.8,20.6L950,637.9L950,637.9z M1113.3,644.4 l14.3,3.6c-3,11.7-8.4,20.7-16.2,26.8c-7.8,6.2-17.3,9.2-28.5,9.2c-11.6,0-21.1-2.4-28.4-7.1c-7.3-4.7-12.8-11.6-16.6-20.6 c-3.8-9-5.7-18.6-5.7-28.9c0-11.2,2.1-21,6.4-29.4c4.3-8.4,10.4-14.7,18.3-19.1c7.9-4.3,16.6-6.5,26.2-6.5 c10.8,0,19.9,2.7,27.2,8.2c7.4,5.5,12.5,13.2,15.4,23.2l-14,3.3c-2.5-7.9-6.1-13.6-10.9-17.2c-4.7-3.6-10.7-5.4-18-5.4 c-8.3,0-15.2,2-20.8,6c-5.6,4-9.5,9.3-11.7,16c-2.3,6.7-3.4,13.6-3.4,20.7c0,9.2,1.3,17.2,4,24c2.7,6.8,6.8,12,12.5,15.4 c5.7,3.4,11.8,5.1,18.3,5.1c8,0,14.8-2.3,20.3-6.9C1107.6,660.3,1111.3,653.4,1113.3,644.4L1113.3,644.4z M1156.4,574.3h67.6v107.9 h-14.3V587h-39v55.6c0,11.3-0.5,19.6-1.6,24.8c-1.1,5.3-3.3,9.3-6.7,12.3c-3.4,2.9-7.7,4.4-12.9,4.4c-3.1,0-6.9-0.6-11.3-1.8 l2.4-12.7c2.4,1,4.4,1.5,6.1,1.5c3.2,0,5.7-1.2,7.3-3.6c1.6-2.4,2.4-8.2,2.4-17.2V574.3L1156.4,574.3z M1256.1,574.3h12.9v85.5 l57.4-85.5h14.4v107.9h-13V597l-57.5,85.3h-14.3V574.3L1256.1,574.3z"/>
        <path class="st1" d="M2,2h85.4v677.9H2V2L2,2z M594.3,2v76H418.9v601.9h-85.4V78H156.2V2H594.3L594.3,2z"/> 
    </g>
</svg>